Coordinates
nRows=15
nColumns=24

# SIMM Motion File Header:
name Coordinates
datacolumns 24
datarows 15
otherdata 1
range 0.23000000000000001000 0.24400000000000002000
endheader
time	pelvis_tx	pelvis_ty	pelvis_tz	pelvis_tilt	pelvis_list	pelvis_rotation	hip_flexion_r	hip_adduction_r	hip_rotation_r	knee_angle_r	ankle_angle_r	subtalar_angle_r	mtp_angle_r	hip_flexion_l	hip_adduction_l	hip_rotation_l	knee_angle_l	ankle_angle_l	subtalar_angle_l	mtp_angle_l	lumbar_extension	lumbar_bending	lumbar_rotation
      0.23000000000000001000	      1.44374854189757460000	      0.96007594481645853000	     -0.23542541332714151000	      2.51212567882460470000	      4.31129180138610750000	     -3.86130173486853190000	      3.09471550011469000000	     -6.56847196013769890000	      7.04374852456407740000	    -54.27503560726932400000	     -6.82728920359279810000	     -0.00000000000000033404	      0.00000000000000074009	      8.47160874023851920000	      5.69981820736409080000	      8.88190395379303870000	    -14.07052854996278600000	      2.84038374976312010000	     -0.00000000000000227258	     -0.00000000000001050282	     -6.55231155071861690000	     -7.68575112228871850000	      8.82738444932623880000
      0.23100000000000001000	      1.44478758943635490000	      0.96022796154458834000	     -0.23547950189007838000	      2.51841212588157150000	      4.28463760186525010000	     -3.84894843273786470000	      3.24390624074933640000	     -6.53314621177676540000	      7.04382943338525800000	    -54.38422063860117100000	     -6.58108787280133090000	     -0.00000000000000034264	      0.00000000000000074699	      8.37141772281188070000	      5.68060027942709310000	      8.87857010873853800000	    -14.03314590879853800000	      2.88259203379772400000	     -0.00000000000000215025	     -0.00000000000001064773	     -6.56605856442827470000	     -7.64502434946148400000	      8.81335791096072010000
      0.23200000000000001000	      1.44582644912670590000	      0.96038223698941338000	     -0.23553483302952441000	      2.52664604278892350000	      4.25867245948187720000	     -3.83631906878701830000	      3.39025357422637350000	     -6.49899600633523190000	      7.04360722742252140000	    -54.48916986999140700000	     -6.34912471218360790000	     -0.00000000000000035207	      0.00000000000000075075	      8.26899409201910450000	      5.66233010308150230000	      8.87413022411233500000	    -13.99486850672624500000	      2.91780123773222220000	     -0.00000000000000202518	     -0.00000000000001076039	     -6.58205086109188200000	     -7.60487039222107340000	      8.79850640966410860000
      0.23300000000000001000	      1.44686505369821990000	      0.96053956482812120000	     -0.23559184717743101000	      2.53751314134620380000	      4.23363913814456350000	     -3.82331577921467410000	      3.53275485196183680000	     -6.46643565645198310000	      7.04297567425838800000	    -54.58838301267508100000	     -6.13643349536293400000	     -0.00000000000000036258	      0.00000000000000075022	      8.16355185232213290000	      5.64534175217212830000	      8.86819290479140320000	    -13.95538096729041300000	      2.94354501602701960000	     -0.00000000000000189640	     -0.00000000000001082889	     -6.60107907510255740000	     -7.56549014085704120000	      8.78253820355783790000
      0.23400000000000001000	      1.44790365826973420000	      0.96069689266682901000	     -0.23564886132533763000	      2.54838023990348410000	      4.20860581680724890000	     -3.81031248964232990000	      3.67525612969730010000	     -6.43387530656873350000	      7.04234412109425370000	    -54.68759615535875400000	     -5.92374227854226110000	     -0.00000000000000037308	      0.00000000000000074970	      8.05810961262515950000	      5.62835340126275340000	      8.86225558547046970000	    -13.91589342785458100000	      2.96928879432181690000	     -0.00000000000000176762	     -0.00000000000001089739	     -6.62010728911323200000	     -7.52610988949300990000	      8.76656999745156900000
      0.23500000000000001000	      1.44894139807294350000	      0.96085658799311113000	     -0.23570899218532293000	      2.56194623064969700000	      4.18449100330267050000	     -3.79649783273229020000	      3.81309116443900730000	     -6.40300841303097810000	      7.04126543009835260000	    -54.77714808869851000000	     -5.73639851467574150000	     -0.00000000000000038585	      0.00000000000000072792	      7.94978871557926590000	      5.61278547133955550000	      8.85431310440849730000	    -13.87550913711040900000	      2.98549555091029050000	     -0.00000000000000162023	     -0.00000000000001097486	     -6.64232495795593980000	     -7.48706664005124620000	      8.74877355721006290000
      0.23600000000000002000	      1.44997906505346010000	      0.96101648268703832000	     -0.23576938550562845000	      2.57573949683562690000	      4.16045353793093930000	     -3.78261485005910770000	      3.95053325186974690000	     -6.37228412653663860000	      7.04014908533927300000	    -54.86588644541195900000	     -5.55118927605609610000	     -0.00000000000000039881	      0.00000000000000070435	      7.84122540495440300000	      5.59733715597730170000	      8.84620176739212030000	    -13.83504933036424400000	      3.00089918879295370000	     -0.00000000000000147129	     -0.00000000000001105308	     -6.66481121283271880000	     -7.44805176975718820000	      8.73082316020114750000
      0.23700000000000002000	      1.45101612929990200000	      0.96117568914414564000	     -0.23583111878209750000	      2.58960299191545310000	      4.13635912297907730000	     -3.76829782922311640000	      4.08717018925473940000	     -6.34159991113504070000	      7.03894577396893690000	    -54.95102113548645700000	     -5.36983167203490020000	     -0.00000000000000041362	      0.00000000000000068740	      7.73283254369996160000	      5.58198557112060900000	      8.83774868646040620000	    -13.79505888284745500000	      3.01709726598311790000	     -0.00000000000000133125	     -0.00000000000001113361	     -6.68746526500198170000	     -7.40858464548179720000	      8.71219011514717680000
      0.23800000000000002000	      1.45205236911664980000	      0.96133395421948131000	     -0.23589468487289891000	      2.60356254724469860000	      4.11218681144408290000	     -3.75338712376725470000	      4.22270582901245820000	     -6.31097050564072770000	      7.03762350822092400000	    -55.03122667038059000000	     -5.19374239789433640000	     -0.00000000000000043096	      0.00000000000000067953	      7.62467282593002780000	      5.56676629585865790000	      8.82882816251594700000	    -13.75571043269299700000	      3.03438199047459680000	     -0.00000000000000120340	     -0.00000000000001121729	     -6.71034883309942830000	     -7.36849892068691670000	      8.69262333274045500000
      0.23900000000000002000	      1.45308860893339740000	      0.96149221929481710000	     -0.23595825096370035000	      2.61752210257394410000	      4.08801449990908860000	     -3.73847641831139250000	      4.35824146877017780000	     -6.28034110014641470000	      7.03630124247291100000	    -55.11143220527472400000	     -5.01765312375377270000	     -0.00000000000000044829	      0.00000000000000067165	      7.51651310816009400000	      5.55154702059670590000	      8.81990763857148790000	    -13.71636198253853900000	      3.05166671496607570000	     -0.00000000000000107556	     -0.00000000000001130097	     -6.73323240119687410000	     -7.32841319589203620000	      8.67305655033373310000
      0.24000000000000002000	      1.45412329475505530000	      0.96164662741661633000	     -0.23602431696431486000	      2.63009429887611690000	      4.06300550538887250000	     -3.72262844207491120000	      4.49387486900135440000	     -6.24869272514607130000	      7.03497273486234500000	    -55.18556343752482700000	     -4.83614399812992430000	     -0.00000000000000048165	      0.00000000000000071498	      7.41070358187584070000	      5.53569689826913520000	      8.81118197091156750000	    -13.67933149534902200000	      3.07870517109465910000	     -0.00000000000000094083	     -0.00000000000001141029	     -6.75477421422993900000	     -7.28652444550901720000	      8.65235981385398030000
      0.24100000000000002000	      1.45515784971379140000	      0.96180071074188811000	     -0.23609059348393577000	      2.64254966478609490000	      4.03792605325862300000	     -3.70670153766572550000	      4.62951650170461090000	     -6.21695854207103160000	      7.03364370162053550000	    -55.25918314885903700000	     -4.65417846334156240000	     -0.00000000000000051636	      0.00000000000000076261	      7.30509196672176040000	      5.51979365190614680000	      8.80247271222416390000	    -13.64249620530530800000	      3.10656499521111410000	     -0.00000000000000080553	     -0.00000000000001152176	     -6.77620303720971330000	     -7.24448386118648460000	      8.63156792321806780000
      0.24200000000000002000	      1.45619098840502680000	      0.96195070044683839000	     -0.23615860777658387000	      2.65333828879210550000	      4.01180264044929480000	     -3.69006938904210320000	      4.76587301602994720000	     -6.18385055720371480000	      7.03242679395680530000	    -55.32850430311877700000	     -4.46125723429046420000	     -0.00000000000000054402	      0.00000000000000076764	      7.20210413940524940000	      5.50293986322087750000	      8.79435268660532010000	    -13.60807841990682100000	      3.14557629247136150000	     -0.00000000000000069643	     -0.00000000000001160661	     -6.79595226235178180000	     -7.20057919610799770000	      8.61008220723231870000
      0.24300000000000002000	      1.45722365500709560000	      0.96209932561168143000	     -0.23622720132690769000	      2.66357133216346000000	      3.98533124074693920000	     -3.67320215901366920000	      4.90246782422931030000	     -6.15028463840563870000	      7.03124726148576860000	    -55.39639260502036000000	     -4.26468410715178870000	     -0.00000000000000056932	      0.00000000000000075848	      7.09999090803459420000	      5.48576922709484730000	      8.78642907200933010000	    -13.57446646939007800000	      3.18830474744620540000	     -0.00000000000000059607	     -0.00000000000001168258	     -6.81514162154794970000	     -7.15605317077752630000	      8.58836521612995800000
      0.24400000000000002000	      1.45825580676883270000	      0.96224648926213030000	     -0.23629625116563338000	      2.67323008989241860000	      3.95842991324679880000	     -3.65614628025393530000	      5.03931494128611490000	     -6.11614784587390400000	      7.03015087331665800000	    -55.46281511918657300000	     -4.06386153957058130000	     -0.00000000000000059514	      0.00000000000000073609	      6.99877195803580140000	      5.46817004834261060000	      8.77877774702905360000	    -13.54165626356707500000	      3.23465480302896550000	     -0.00000000000000051122	     -0.00000000000001174918	     -6.83375234297821790000	     -7.11082641694118680000	      8.56650386347910420000
